<?xml version="1.0" encoding="UTF-8"?>
<svg xmlns="http://www.w3.org/2000/svg"  viewBox="0 0 1920 988" fill="none">
    <path
        d="M861.422 308.011V36.6091L867.146 30.0035L878.093 38.909L907.741 41.4683L917.091 44.7884H934.994L945.758 40.4134L960.878 52.3278L969.02 52.933L983.365 55.0427L996.684 46.6041L1007.84 37.6986L1010.62 36.1941L1015.59 43.284L1020.97 49.1633L1023.75 47.3476L1032.31 58.8989L1045.05 70.5884H1050.03L1068.93 80.0992L1086.24 72.2485L1092.99 71.6433L1098.97 74.8078H1108.73L1116.28 71.038L1120.06 75.8626L1139.17 69.9832L1143.94 73.459H1147.93L1149.92 76.1738L1160.06 72.6981L1164.44 74.8078L1181.16 71.038L1184.54 73.1477L1191.1 72.6981L1203.03 67.1127L1212.4 69.5336L1215.98 73.0094L1226.32 68.1675L1234.69 68.3232L1248.62 62.7378L1255.58 61.8386L1261.35 54.8871L1265.72 51.273L1273.89 48.4025L1278.45 42.8171L1280.25 38.5977L1285.22 36.6437L1288.8 38.3038L1292.79 33.168L1298.36 31.3523L1303.33 34.2228L1322.62 50.5121L1329.01 59.7289L1335.37 57.1524L1363.83 67.8736L1375.56 68.9284L1386.12 72.8537L1403.43 74.3582L1409.79 79.494L1420.94 79.6323L1425.91 83.4193L1430.09 81.448H1442.83L1455.95 76.0182L1463.52 78.5775L1476.86 73.7529L1490.18 71.3493L1503.11 63.049L1509.68 65.6083L1517.64 60.0229L1518.44 56.7027L1521.63 54.5931L1531.78 55.4923L1538.94 52.1722L1544.5 54.5931L1553.05 53.6939L1574.56 63.4986L1586.31 63.6542L1605.19 61.2333L1615.95 62.2882L1647.38 45.3936L1649.36 47.6589L1655.54 42.5231L1669.27 38.1481L1686.19 46.2928L1691.55 53.6939L1698.12 51.7226L1704.9 56.0975L1709.48 54.4375L1722.41 66.8187L1726.38 64.7091L1736.94 72.6981H1747.88L1749.75 74.8078L1777.33 74.2025L1783.9 77.8339H1788.87L1793.25 80.7044H1799.4L1802.6 83.0735V82.8141L1806.97 81.448L1827.27 78.2835L1833.04 79.7879L1835.23 77.073L1852.34 72.6981L1879.02 71.3493L1902.69 84.6125H1908.85L1913.43 87.6386H1919.64L1919.66 308.011H1807.11H1802.6H861.422Z"
        fill="#FEF9F9"></path>
    <path
        d="M315.541 0.727661L320.331 3.73652L321.927 7.05663L334.448 4.49737L342.407 5.5522L351.962 12.0541L356.934 12.7977L365.099 12.0541L374.837 12.7977L379.626 18.5387L386.992 18.0718L393.56 23.3632L398.327 22.464L405.898 23.8128L411.851 30.6087L425.397 34.0671L432.148 39.3586L436.937 39.4969L438.921 41.7622L442.889 42.0735L448.864 40.7074L454.634 41.1743L463.392 46.898L475.524 46.604L485.08 47.0536L490.667 43.8719L499.607 43.2839L501.409 40.863L508.159 41.9178L511.558 45.8432L532.448 47.5032L541 43.4223H550.35L552.745 40.5517L564.49 34.0671L576.828 30.0035L582.392 25.7842L586.771 25.0233L595.323 16.723L601.892 15.3569L629.35 6.46869L641.893 12.1924L655.234 22.758H660.799L668.963 27.1329H673.525L675.919 30.0035L691.632 28.6374L697.608 29.087L723.675 27.5825L727.255 30.0035L733.23 27.5825L740.186 28.3434L744.36 31.5079L750.54 33.1679L760.483 27.1329L783.563 12.0541L792.138 9.78881L797.109 11.4489L813.621 13.2473L822.971 18.9883L831.523 20.0431L843.656 31.6635H854.42L863.178 37.8541L874.512 46.604H884.661L897.387 54.7487H914.103L942.953 61.9942H949.726L960.468 68.3231L982.361 71.7989L986.945 76.779L990.526 74.0469H1010.82L1016.98 77.367H1021.95L1034.91 84.6124L1036.48 82.3644L1049.02 83.108L1053.79 86.4281L1057.39 85.6673L1071.12 97.2877H1094.38L1101.54 102.268V105.432L1104.14 106.193V109.358L1115.09 116.154V120.373L1121.84 122.344L1128.02 127.463V136.213L1138.56 140.449L1142.94 147.885V308.011H0V33.8423L8.71179 31.9575L14.4817 34.534L33.1824 34.828L49.8992 32.7183L51.6781 29.6922L70.1964 27.8938L79.5468 30.1418L96.2634 28.0321L109.993 29.5539L123.129 22.758L129.492 22.3084L136.447 26.6833L143.221 24.2624L147.394 26.839L152.571 27.5825L159.344 31.6635L167.509 35.5889L173.279 33.4619L178.25 33.6175L193.758 28.793L201.33 29.8478L209.084 30.0035L213.873 27.5825L221.627 26.9773L225.801 23.8128L232.163 24.1068L236.953 30.747L246.896 31.3523L250.682 26.839L262.221 22.1528L273.966 21.5475L285.301 15.5125L300.832 6.60703L315.541 0.727661Z"
        fill="#FEF2F2"></path>
    <path
        d="M269.975 308.011V166.094L275.54 162.324L299.828 157.188L312.166 156.445L338.826 150.548L354.95 150.704L380.014 153.73L390.162 150.704L395.544 150.859L411.668 142.715H425.192L443.893 138.184L473.153 130.039L478.124 130.489L500.2 122.483L511.147 116.759L530.851 116.603L537.419 113.733L550.145 111.468L556.325 107.248L560.111 109.617L568.458 105.294L574.046 103.634L579.61 106.349L585.38 112.989L594.343 109.617H602.097L613.226 111.329L631.334 105.139L633.523 102.424L647.07 97.8931L666.158 113.594L679.705 121.324H694.917V308.011H269.975Z"
        fill="#FECACA"></path>
    <path
        d="M439.514 308.011V219.665L449.663 215.429L476.323 213.924L493.039 206.385L545.379 192.949L567.865 185.409L610.056 163.535L657.811 140.743L698.064 119.681L701.12 115.445L712.796 114.649L721.28 110.326L725.271 109.825L738.407 114.84L747.028 113.733L751.407 117.468H766.527L784.178 125.803L795.445 127.411L812.024 131.042L823.29 130.333L838.684 134.553L850.11 140.294H861.376L873.372 141.919V308.011H439.514Z"
        fill="#FCA5A5"></path>
    <path
        d="M1887.78 308.011V120.304L1868.25 103.098L1861.5 97.1496L1859.11 89.7485L1854.73 88.538L1845.97 89.1433L1843.19 86.1344L1818.9 86.7396L1815.32 84.6127L1796.83 88.6937L1785.08 93.0686L1778.51 88.6937L1766.38 89.5929L1760.61 92.3077L1737.33 80.3934L1734.54 76.3297H1724.99L1708.07 84.6127L1695.93 86.584L1674.45 87.1892L1661.11 71.3495L1654.54 80.549L1646.99 75.7245L1640.63 76.0184L1639.03 74.6696L1622.7 80.7046L1611.73 89.8004V308.011H1887.78Z"
        fill="#FECACA"></path>
    <path
        d="M1559.23 91.5635L1583.91 92.7566L1587.88 90.9582L1662.7 87.3269L1680.61 91.1139L1693.56 93.2235L1740.31 107.248H1754.43L1765.19 112.522L1802.8 114.787L1818.51 106.193L1827.48 103.478L1831.24 107.248H1839.81L1846.77 115.842L1855.14 120.148L1861.69 118.712L1869.26 121.583L1910.65 118.712L1915.23 121.583L1919.64 121.393V308.011H1294.78V119.49L1296.17 114.943L1308.51 110.274V105.587L1313.89 100.763L1324.02 102.112L1331.59 100.313L1332.77 107.248L1338.95 99.2585L1347.92 94.8836H1365.41L1397.45 88.6929L1451.18 85.2172L1517.25 84.612L1559.23 91.5635Z"
        fill="#FCA5A5"></path>
    <path
        d="M1674.84 113.732H1688.57L1714.63 122.033H1734.75L1741.5 124.298L1765.99 123.554L1779.31 138.478L1794.64 144.824L1811.35 146.484L1814.34 153.418L1819.11 155.078L1821.89 162.03L1833.63 165.938L1835.44 168.964L1881 184.959L1888.96 199.744L1902.9 201.854L1920 216.033L1919.66 987.308H0V127.826L9.09949 127.307L23.0339 128.362L24.2198 130.177L49.5115 130.022L53.2744 131.076L66.0229 131.388L71.2 133.947L84.1307 133.497L91.0865 139.826L111.794 138.322L123.129 138.927L127.302 141.192L153.757 142.541L176.061 159.297L183.427 161.563L194.762 160.646L200.327 158.087L211.684 160.352L215.059 164.416L221.832 164.572L224.022 166.681L235.151 167.286L240.123 165.332L246.896 165.488L250.476 162.618L259.827 162.012L266.395 165.782L273.761 166.387L277.547 169.102L292.873 171.523L303.819 179.806L313.17 181.622L325.69 181.172L346.58 187.052L356.934 187.812L360.309 189.766L376.251 190.977L380.219 193.692L396.343 195.352L408.681 199.122L418.419 204.551L427.974 207.577L439.126 212.713L441.316 232.617L463.187 244.237L478.922 248.923L493.655 255.857L505.856 266.319V274.775L509.551 284.822L522.824 290.062L542.459 299.313L545.379 303.428V303.394L563.486 283.473L574.433 281.07H590.557L597.718 261.149L643.01 231.527H658.404L696.08 218.644L709.603 204.171L753.391 189.075V184.043L787.622 166.75L799.823 166.145L830.862 151.464L841.467 151.654L877.021 140.795L891.092 133.549L895.859 137.181L906.737 129.122L910.728 133.549L940.444 136.178L970.685 142.801L974.676 140.397L990.047 143.613H999.078L1011.8 133.152H1018.44L1028.27 141.798L1033.83 138.789L1036.75 143.613L1045.24 144.011L1052.95 149.043L1146.59 147.833L1175.25 146.432L1182.14 141.798L1186.66 145.014L1195.14 136.973L1210.26 133.964L1224.06 137.786L1244.24 135.97L1248.48 130.54L1277.67 114.044L1288 115.444L1296.76 120.684L1319.59 122.897L1333.39 118.263L1341.07 121.687L1349.03 121.479L1369.99 117.052L1390.7 120.269L1405.02 117.052L1423.59 117.658L1432.87 113.836L1452.37 117.052L1506.9 110.723L1518.64 112.228L1521.83 110.118L1539.74 109.513L1547.9 111.934L1554.45 110.118L1587.08 108.752L1605.99 111.623L1639.03 108.458L1651.16 109.807L1654.75 108.164L1665.49 107.248L1674.84 113.732Z"
        fill="#EF4444"></path>
</svg>