<?xml version="1.0" encoding="UTF-8"?>
<svg xmlns="http://www.w3.org/2000/svg" width="1920" height="1601" viewBox="0 0 1920 1601" fill="none">
  <rect y="271.673" width="1920" height="1329.33" fill="#FFCC00"></rect>
  <path d="M861.422 348.913V40.7427L867.146 33.2422L878.093 43.3542L907.741 46.2602L917.091 50.0301H934.994L945.758 45.0624L960.878 58.5909L969.02 59.2781L983.365 61.6736L996.684 52.0917L1007.84 41.9797L1010.62 40.2715L1015.59 48.3218L1020.97 54.9977L1023.75 52.936L1032.31 66.0522L1045.05 79.3254H1050.03L1068.93 90.1246L1086.24 81.2104L1092.99 80.5231L1098.97 84.1163H1108.73L1116.28 79.8359L1120.06 85.3141L1139.17 78.6382L1143.94 82.5848H1147.93L1149.92 85.6675L1160.06 81.7209L1164.44 84.1163L1181.16 79.8359L1184.54 82.2314L1191.1 81.7209L1203.03 75.3788L1212.4 78.1277L1215.98 82.0743L1226.32 76.5765L1234.69 76.7532L1248.62 70.4111L1255.58 69.3901L1261.35 61.4969L1265.72 57.3932L1273.89 54.1338L1278.45 47.7917L1280.25 43.0008L1285.22 40.782L1288.8 42.667L1292.79 36.8354L1298.36 34.7737L1303.33 38.0331L1322.62 56.5292L1329.01 66.9947L1335.37 64.0691L1363.83 76.2427L1375.56 77.4405L1386.12 81.8976L1403.43 83.6058L1409.79 89.4374L1420.94 89.5945L1425.91 93.8945L1430.09 91.6562H1442.83L1455.95 85.4908L1463.52 88.3968L1476.86 82.9186L1490.18 80.1894L1503.11 70.7646L1509.68 73.6706L1517.64 67.3285L1518.44 63.5585L1521.63 61.1631L1531.78 62.1841L1538.94 58.4142L1544.5 61.1631L1553.05 60.1421L1574.56 71.2751L1586.31 71.4518L1605.19 68.7029L1615.95 69.9006L1647.38 50.7173L1649.36 53.2895L1655.54 47.4579L1669.27 42.4902L1686.19 51.7383L1691.55 60.1421L1698.12 57.9037L1704.9 62.8713L1709.48 60.9864L1722.41 75.045L1726.38 72.6495L1736.94 81.7209H1747.88L1749.75 84.1163L1777.33 83.4291L1783.9 87.5525H1788.87L1793.25 90.8119H1799.4L1802.6 93.5018V93.2073L1806.97 91.6562L1827.27 88.063L1833.04 89.7712L1835.23 86.6885L1852.34 81.7209L1879.02 80.1894L1902.69 95.2494H1908.85L1913.43 98.6855H1919.64L1919.66 348.913H1807.11H1802.6H861.422Z" fill="#FFFAEC"></path>
  <path d="M315.541 0L320.331 3.41648L321.927 7.18639L334.448 4.28042L342.407 5.47815L351.962 12.8609L356.934 13.7052L365.099 12.8609L374.837 13.7052L379.626 20.224L386.992 19.6939L393.56 25.7021L398.327 24.6811L405.898 26.2127L411.851 33.9292L425.397 37.8562L432.148 43.8645L436.937 44.0216L438.921 46.5937L442.889 46.9472L448.864 45.396L454.634 45.9261L463.392 52.4253L475.524 52.0915L485.08 52.602L490.667 48.9892L499.607 48.3216L501.409 45.5727L508.16 46.7704L511.558 51.2276L532.448 53.1125L541 48.4787H550.35L552.745 45.2193L564.49 37.8562L576.828 33.242L582.392 28.451L586.771 27.5871L595.323 18.1623L601.892 16.6112L629.35 6.5188L641.893 13.018L655.234 25.0149H660.799L668.963 29.9826H673.525L675.919 33.242L691.632 31.6908L697.608 32.2013L723.675 30.4931L727.255 33.242L733.23 30.4931L740.186 31.357L744.36 34.9502L750.54 36.8352L760.483 29.9826L783.563 12.8609L792.138 10.2887L797.109 12.1737L813.621 14.2157L822.971 20.7345L831.523 21.9322L843.656 35.1269H854.42L863.178 42.1562L874.512 52.0915H884.661L897.387 61.3396H914.103L942.953 69.5666H949.726L960.468 76.753L982.361 80.6996L986.945 86.3545L990.526 83.2522H1010.82L1016.98 87.0221H1021.95L1034.91 95.2491L1036.48 92.6966L1049.02 93.5409L1053.79 97.3108L1057.39 96.4469L1071.12 109.642H1094.38L1101.54 115.296V118.89L1104.14 119.754V123.347L1115.09 131.063V135.854L1121.84 138.093L1128.02 143.905V153.84L1138.56 158.65L1142.94 167.093V348.913H-4.46963e-05V37.6009L8.7118 35.4607L14.4817 38.3863L33.1824 38.7201L49.8991 36.3247L51.678 32.8885L70.1964 30.8465L79.5467 33.399L96.2634 31.0036L109.993 32.7315L123.129 25.0149L129.492 24.5044L136.447 29.4721L143.221 26.7232L147.394 29.6488L152.571 30.4931L159.344 35.1269L167.509 39.5841L173.279 37.169L178.25 37.3457L193.758 31.8675L201.33 33.0653L209.084 33.242L213.873 30.4931L221.627 29.8058L225.801 26.2127L232.163 26.5464L236.953 34.0863L246.896 34.7735L250.682 29.6488L262.221 24.3277L273.966 23.6405L285.301 16.7879L300.832 6.67588L315.541 0Z" fill="#FFEFC3"></path>
  <path d="M269.975 348.913V187.769L275.54 183.489L299.828 177.657L312.166 176.813L338.826 170.118L354.95 170.294L380.014 173.73L390.162 170.294L395.544 170.471L411.668 161.223H425.192L443.893 156.079L473.153 146.83L478.124 147.341L500.2 138.25L511.147 131.751L530.851 131.574L537.419 128.315L550.145 125.743L556.325 120.952L560.111 123.642L568.458 118.733L574.046 116.848L579.61 119.931L585.38 127.47L594.343 123.642H602.097L613.226 125.585L631.334 118.556L633.523 115.473L647.07 110.329L666.158 128.158L679.705 136.934H694.917V348.913H269.975Z" fill="#FFE596"></path>
  <path d="M439.514 348.913V248.598L449.663 243.788L476.323 242.079L493.039 233.519L545.379 218.262L567.865 209.701L610.056 184.863L657.811 158.984L698.064 135.069L701.12 130.258L712.796 129.355L721.28 124.446L725.271 123.877L738.407 129.571L747.028 128.314L751.407 132.556H766.527L784.178 142.02L795.445 143.846L812.024 147.969L823.29 147.164L838.684 151.955L850.11 158.474H861.376L873.372 160.319V348.913H439.514Z" fill="#FFDA62"></path>
  <path d="M1887.78 348.913V135.776L1868.25 116.239L1861.5 109.485L1859.11 101.081L1854.73 99.7066L1845.97 100.394L1843.19 96.9773L1818.9 97.6646L1815.32 95.2495L1796.83 99.8833L1785.08 104.851L1778.51 99.8833L1766.38 100.904L1760.61 103.987L1737.33 90.4585L1734.54 85.8443H1724.99L1708.07 95.2495L1695.93 97.4878L1674.45 98.1751L1661.11 80.1895L1654.54 90.6352L1646.99 85.1571L1640.63 85.4909L1639.03 83.9594L1622.7 90.812L1611.73 101.14V348.913H1887.78Z" fill="#FFE596"></path>
  <path d="M1559.23 103.142L1583.91 104.497L1587.88 102.455L1662.7 98.3312L1680.61 102.631L1693.56 105.027L1740.31 120.951H1754.43L1765.19 126.939L1802.8 129.512L1818.51 119.753L1827.48 116.67L1831.24 120.951H1839.81L1846.77 130.709L1855.14 135.598L1861.69 133.969L1869.26 137.228L1910.65 133.969L1915.23 137.228L1919.64 137.012V348.912H1294.78V134.852L1296.17 129.688L1308.51 124.387V119.066L1313.89 113.588L1324.02 115.119L1331.59 113.077L1332.77 120.951L1338.95 111.879L1347.92 106.912H1365.41L1397.45 99.8824L1451.18 95.9358L1517.25 95.2485L1559.23 103.142Z" fill="#FFDA62"></path>
  <path d="M1674.84 128.314H1688.57L1714.63 137.739H1734.75L1741.5 140.311L1765.99 139.467L1779.31 156.412L1794.64 163.618L1811.35 165.503L1814.34 173.376L1819.11 175.261L1821.89 183.155L1833.63 187.592L1835.44 191.028L1881 209.191L1888.96 225.979L1902.9 228.374L1920 244.475L1919.66 636.526H0V144.317L9.09949 143.728L23.0339 144.925L24.2198 146.987L49.5115 146.81L53.2744 148.008L66.0229 148.362L71.2 151.268L84.1307 150.757L91.0865 157.943L111.794 156.235L123.129 156.922L127.302 159.495L153.757 161.026L176.061 180.052L183.427 182.625L194.762 181.584L200.327 178.678L211.684 181.25L215.059 185.864L221.832 186.041L224.022 188.436L235.151 189.124L240.123 186.905L246.896 187.082L250.476 183.822L259.827 183.135L266.395 187.415L273.761 188.103L277.547 191.185L292.873 193.934L303.819 203.339L313.17 205.401L325.69 204.891L346.58 211.566L356.934 212.43L360.309 214.649L376.251 216.024L380.219 219.106L396.343 220.991L408.681 225.272L418.419 231.437L427.974 234.873L439.126 240.705L441.316 263.305L463.187 276.499L478.922 281.82L493.655 289.694L505.856 301.573V311.175L509.551 322.582L522.824 328.532L542.459 339.037L545.379 343.71V343.67L563.486 321.051L574.433 318.322H590.557L597.718 295.702L643.01 262.068H658.404L696.08 247.44L709.603 231.005L753.391 213.864V208.15L787.622 188.515L799.823 187.828L830.862 171.158L841.467 171.374L877.021 159.043L891.092 150.816L895.859 154.939L906.737 145.789L910.728 150.816L940.444 153.8L970.685 161.321L974.676 158.591L990.047 162.243H999.078L1011.8 150.364H1018.44L1028.27 160.182L1033.83 156.765L1036.75 162.243L1045.24 162.695L1052.95 168.409L1146.59 167.034L1175.25 165.444L1182.14 160.182L1186.66 163.834L1195.14 154.704L1210.26 151.287L1224.06 155.626L1244.24 153.565L1248.48 147.399L1277.67 128.668L1288 130.258L1296.76 136.208L1319.59 138.721L1333.39 133.459L1341.07 137.346L1349.03 137.111L1369.99 132.084L1390.7 135.736L1405.02 132.084L1423.59 132.771L1432.87 128.432L1452.37 132.084L1506.9 124.898L1518.64 126.606L1521.83 124.211L1539.74 123.523L1547.9 126.272L1554.45 124.211L1587.08 122.659L1605.99 125.919L1639.03 122.326L1651.16 123.857L1654.75 121.992L1665.49 120.951L1674.84 128.314Z" fill="#FFCC00"></path>
</svg>
